<svg xmlns="http://www.w3.org/2000/svg" viewBox="0 0 185 62"><defs><style>.cls-1{fill:#c01f3c;}.cls-2{fill:#4a4644;}</style></defs><title>Insales_logo_color</title><g id="Obwee"><path class="cls-1" d="M42.24,29.55A21.84,21.84,0,0,1,44,12.22C49.23,2.95,60.49-1,71.07,1.81l3.08,4.82-4.92,4c-10.58-2-20.55,1.18-24.91,8.88a17.12,17.12,0,0,0-2.07,10"/><rect class="cls-2" y="19.24" width="8.28" height="41.12"/><path class="cls-2" d="M40.51,60.36H32.35v-18a5,5,0,0,0-1.64-3.49,5.49,5.49,0,0,0-7.54-.06,5.18,5.18,0,0,0-1.71,3.43V60.36H13.18V30.44h8.28v1.83A11.29,11.29,0,0,1,29,29.7a10.73,10.73,0,0,1,8.17,3.61,12.86,12.86,0,0,1,3.33,9.06Z"/><path class="cls-1" d="M78.21,48.3q0,6.37-4.79,9.58a21,21,0,0,1-12,3.21,25.46,25.46,0,0,1-17-6.73l6-5.94A20.71,20.71,0,0,0,61.88,52.9a12.56,12.56,0,0,0,5.94-1.2A3.62,3.62,0,0,0,70,48.43,3.82,3.82,0,0,0,68,45q-2.1-1.35-7.12-2Q53.47,42.12,50,38.88a10,10,0,0,1-3.36-7.64,11.78,11.78,0,0,1,3.74-8.94q3.74-3.55,10.79-3.61A22.94,22.94,0,0,1,75.92,24L70,29.82a14.93,14.93,0,0,0-8.54-2.93c-2.47,0-4.23.36-5.25,1.07a3.21,3.21,0,0,0-1.55,2.72,2.87,2.87,0,0,0,1.63,2.57,14.83,14.83,0,0,0,5.3,1.22q7.85.74,12.21,4.32a11.7,11.7,0,0,1,4.35,9.51"/><path class="cls-2" d="M109.29,60.36h-7.86v-1a22.2,22.2,0,0,1-8,1.4A12,12,0,0,1,85.16,58a9.16,9.16,0,0,1-3.21-7.22A9.81,9.81,0,0,1,85.5,43a13.13,13.13,0,0,1,8.94-3.09,32,32,0,0,1,7.11.79,2.82,2.82,0,0,0-1.24-2.63A7.69,7.69,0,0,0,96,37a17.47,17.47,0,0,0-8.41,2.2l-3.21-6.36A25.49,25.49,0,0,1,96,29.71q5.94,0,9.59,2.75t3.65,8.39Zm-7.86-8.2V47.7a35.87,35.87,0,0,0-7-.74,5.45,5.45,0,0,0-3.31,1,2.69,2.69,0,0,0,.25,4.77,6.72,6.72,0,0,0,3.8,1,12.57,12.57,0,0,0,6.24-1.59"/><polygon class="cls-2" points="122.72 60.36 114.43 60.36 114.43 22.79 122.72 18.69 122.72 60.36"/><path class="cls-2" d="M155.15,48H135.36a6.9,6.9,0,0,0,2.35,4A6.27,6.27,0,0,0,142,53.45a6.86,6.86,0,0,0,5-2.14l5.5,4.28a12.8,12.8,0,0,1-10.52,5.32,13.75,13.75,0,0,1-10.52-4.37,15.86,15.86,0,0,1-4.07-11.23,17.4,17.4,0,0,1,1.86-8,13.13,13.13,0,0,1,5.25-5.63,14.07,14.07,0,0,1,7.11-2,12.27,12.27,0,0,1,7,2.2,14,14,0,0,1,4.92,5.85q1.67,3.64,1.67,10.25M147,41.21a4.93,4.93,0,0,0-2-3.06A6.22,6.22,0,0,0,141.54,37,6.34,6.34,0,0,0,138,38.14a4.9,4.9,0,0,0-2,3.06Z"/><path class="cls-2" d="M185,51.73a8.19,8.19,0,0,1-3.31,6.42q-3.31,2.76-10.55,2.75a34.72,34.72,0,0,1-14-3.42l3.64-7.16a23,23,0,0,0,10.71,3.37c2.59-.08,4.15-.34,4.65-.77a1.8,1.8,0,0,0,.73-1.31A1.74,1.74,0,0,0,176,50.3q-.84-.64-5.16-1.5a26.05,26.05,0,0,1-8.7-3.12,6.74,6.74,0,0,1-3.5-5.75A8.79,8.79,0,0,1,162,32.55q3.43-2.85,9.12-2.84a29.45,29.45,0,0,1,13.24,3.42l-3.47,6.79a27.23,27.23,0,0,0-9.46-2.45A8.69,8.69,0,0,0,168,38a1.58,1.58,0,0,0-1.08,1.46A1.62,1.62,0,0,0,168,40.6a34.15,34.15,0,0,0,4.36,1.28,30.23,30.23,0,0,1,9.37,3.49A7,7,0,0,1,185,51.73"/></g></svg>